<svg width="12" height="15" viewBox="0 0 12 15" fill="none" xmlns="http://www.w3.org/2000/svg">
<path d="M11.6146 5.96577C11.6143 6.85764 11.3967 7.73602 10.9806 8.52484C10.5644 9.31367 9.96224 9.98917 9.22621 10.4929C8.49019 10.9965 7.64248 11.3132 6.7565 11.4155C5.87051 11.5178 4.97294 11.4026 4.14151 11.0799V5.96577C4.1411 6.4062 4.27133 6.83687 4.51572 7.20328C4.76012 7.56969 5.1077 7.85538 5.51449 8.02421C5.92128 8.19305 6.36901 8.23743 6.80103 8.15176C7.23306 8.06609 7.62997 7.85421 7.94155 7.54292C8.25313 7.23163 8.46539 6.83492 8.55146 6.40297C8.63754 5.97103 8.59357 5.52326 8.42512 5.11631C8.25666 4.70936 7.9713 4.36151 7.60512 4.11678C7.23893 3.87204 6.80839 3.74141 6.36796 3.74141C6.07558 3.74123 5.78604 3.79867 5.51588 3.91045C5.24572 4.02223 5.00024 4.18616 4.79347 4.39287C4.58669 4.59958 4.42269 4.84501 4.31082 5.11513C4.19896 5.38526 4.14142 5.67478 4.14151 5.96715V5.80827H0.64679C0.692373 4.37056 1.30088 3.00828 2.34122 2.01491C3.38156 1.02154 4.77047 0.476567 6.20876 0.497402C7.64704 0.518238 9.01959 1.10321 10.0307 2.1263C11.0418 3.14939 11.6106 4.52872 11.6146 5.96715V5.96577Z" fill="#77AEF6"/>
<path d="M4.14157 9.95201V14.3924H0.643372V5.96606C0.643372 7.78316 2.09344 9.33244 4.14157 9.95201Z" fill="#87CEFA"/>
<path d="M4.14157 5.80688V11.0798C3.11064 10.6798 2.22484 9.97726 1.60051 9.06454C0.976175 8.15182 0.64252 7.07159 0.643373 5.96577C0.643373 5.91234 0.643374 5.861 0.646844 5.80688H4.14157Z" fill="#87CEFA"/>
</svg>
