
<svg width="24" height="25" viewBox="0 0 24 25" fill="none" xmlns="http://www.w3.org/2000/svg">
<path d="M23.4998 12.3327C23.4993 14.243 23.0332 16.1245 22.1418 17.8141C21.2504 19.5038 19.9606 20.9507 18.384 22.0295C16.8075 23.1084 14.9917 23.7868 13.094 24.0059C11.1962 24.2249 9.2737 23.9781 7.49281 23.2868V12.3327C7.49193 13.2761 7.77087 14.1986 8.29435 14.9834C8.81784 15.7682 9.56233 16.3802 10.4337 16.7418C11.305 17.1034 12.264 17.1985 13.1894 17.015C14.1148 16.8315 14.9649 16.3777 15.6323 15.7109C16.2997 15.0441 16.7544 14.1944 16.9387 13.2692C17.1231 12.344 17.0289 11.3849 16.6681 10.5132C16.3073 9.64151 15.696 8.89644 14.9117 8.37223C14.1274 7.84801 13.2052 7.56821 12.2618 7.56821C11.6355 7.56782 11.0153 7.69085 10.4366 7.93028C9.85797 8.16971 9.33216 8.52085 8.88926 8.9636C8.44637 9.40636 8.09507 9.93206 7.85546 10.5107C7.61585 11.0893 7.49261 11.7094 7.49281 12.3357V11.9953H0.00725174C0.104889 8.91582 1.40828 5.99788 3.63665 3.87011C5.86501 1.74235 8.84001 0.575044 11.9208 0.619673C15.0015 0.664302 17.9415 1.91729 20.1072 4.10871C22.273 6.30013 23.4914 9.2546 23.4998 12.3357V12.3327Z" fill="#77AEF6"/>
</svg>
